<?xml version="1.0" standalone="no"?>
<!DOCTYPE svg PUBLIC "-//W3C//DTD SVG 20010904//EN"
 "http://www.w3.org/TR/2001/REC-SVG-20010904/DTD/svg10.dtd">
<svg version="1.0" xmlns="http://www.w3.org/2000/svg"
 width="200.000000pt" height="200.000000pt" viewBox="0 0 200.000000 200.000000"
 preserveAspectRatio="xMidYMid meet">

<g transform="translate(0.000000,200.000000) scale(0.100000,-0.100000)"
fill="#000000" stroke="none">
<path d="M920 1990 c-241 -18 -462 -121 -631 -297 -193 -199 -282 -420 -282
-693 0 -281 100 -517 301 -712 198 -191 419 -281 692 -281 273 0 494 89 693
282 130 125 225 287 273 466 27 101 27 389 0 490 -94 350 -366 624 -711 718
-53 14 -220 40 -235 35 -3 0 -48 -4 -100 -8z m213 -151 c106 -36 207 -111 207
-155 0 -19 5 -24 26 -24 37 0 108 -73 124 -128 18 -59 1 -112 -55 -168 -25
-24 -49 -44 -54 -44 -5 0 -12 13 -16 29 -9 40 -25 51 -97 66 -35 7 -72 16 -84
20 -39 12 -172 -119 -274 -268 -36 -55 -118 -224 -146 -304 -10 -29 -21 -53
-25 -53 -14 0 -124 160 -161 235 -78 154 -108 273 -108 429 0 109 19 204 48
246 31 43 211 118 337 140 73 13 207 3 278 -21z m-709 -224 c-8 -33 -17 -101
-20 -150 -30 -429 325 -854 780 -934 187 -34 411 20 595 141 l34 22 -7 -34
c-36 -181 -223 -339 -455 -386 -132 -26 -298 -16 -421 25 -52 18 -110 42 -130
53 -85 52 -86 52 -45 10 22 -22 67 -57 100 -77 69 -41 219 -92 300 -101 89
-11 44 -24 -83 -24 -130 0 -237 19 -334 59 -186 78 -361 247 -462 446 -126
249 -108 611 43 864 37 63 110 155 116 149 2 -2 -3 -30 -11 -63z"/>
<path d="M985 1781 c-14 -6 -2 -9 41 -13 33 -3 76 -14 95 -23 33 -17 33 -17
19 0 -31 37 -107 55 -155 36z"/>
<path d="M920 1740 c-12 -8 -9 -15 20 -45 19 -20 48 -44 64 -52 37 -19 124
-13 162 12 l27 18 -24 18 c-24 17 -24 17 -38 -6 -16 -26 -51 -45 -82 -45 -29
0 -79 53 -79 84 0 28 -21 34 -50 16z"/>
<path d="M990 1732 c0 -34 29 -62 64 -62 35 0 73 31 61 49 -9 16 -26 13 -40
-6 -16 -21 -45 -10 -45 17 0 13 -7 20 -20 20 -12 0 -20 -7 -20 -18z"/>
</g>
</svg>
